<svg width="300" height="97" viewBox="0 0 300 97" version="1.1" xmlns="http://www.w3.org/2000/svg" xmlns:xlink="http://www.w3.org/1999/xlink">
<title>Logo</title>
<desc>Created using Figma</desc>
<g id="Canvas" transform="translate(-5530 499)">
<g id="Logo">
<g id="Vector">
<use xlink:href="#path0_fill" transform="translate(5570.25 -469.708)" fill="#C09363"/>
</g>
<g id="Vector">
<use xlink:href="#path1_fill" transform="translate(5640.32 -468.597)" fill="#E0DFDE"/>
</g>
<g id="Vector">
<use xlink:href="#path2_fill" transform="translate(5683.08 -468.597)" fill="#E0DFDE"/>
</g>
<g id="Vector">
<use xlink:href="#path3_fill" transform="translate(5698.02 -469.3)" fill="#E0DFDE"/>
</g>
<g id="Vector">
<use xlink:href="#path4_fill" transform="translate(5728.46 -468.597)" fill="#E0DFDE"/>
</g>
<g id="Vector">
<use xlink:href="#path5_fill" transform="translate(5744.03 -469.3)" fill="#E0DFDE"/>
</g>
<g id="Vector">
<use xlink:href="#path6_fill" transform="translate(5791.85 -468.597)" fill="#E0DFDE"/>
</g>
<g id="Vector">
<use xlink:href="#path7_fill" transform="translate(5530 -499)" fill="#E0DFDE"/>
</g>
<g id="BAPTIST MISSIONS">
<use xlink:href="#path8_fill" transform="translate(5647.25 -422.373)" fill="#E0DFDE"/>
<use xlink:href="#path9_fill" transform="translate(5647.25 -422.373)" fill="#E0DFDE"/>
<use xlink:href="#path10_fill" transform="translate(5647.25 -422.373)" fill="#E0DFDE"/>
<use xlink:href="#path11_fill" transform="translate(5647.25 -422.373)" fill="#E0DFDE"/>
<use xlink:href="#path12_fill" transform="translate(5647.25 -422.373)" fill="#E0DFDE"/>
<use xlink:href="#path13_fill" transform="translate(5647.25 -422.373)" fill="#E0DFDE"/>
<use xlink:href="#path14_fill" transform="translate(5647.25 -422.373)" fill="#E0DFDE"/>
<use xlink:href="#path15_fill" transform="translate(5647.25 -422.373)" fill="#E0DFDE"/>
<use xlink:href="#path16_fill" transform="translate(5647.25 -422.373)" fill="#E0DFDE"/>
<use xlink:href="#path17_fill" transform="translate(5647.25 -422.373)" fill="#E0DFDE"/>
<use xlink:href="#path18_fill" transform="translate(5647.25 -422.373)" fill="#E0DFDE"/>
<use xlink:href="#path19_fill" transform="translate(5647.25 -422.373)" fill="#E0DFDE"/>
<use xlink:href="#path20_fill" transform="translate(5647.25 -422.373)" fill="#E0DFDE"/>
<use xlink:href="#path21_fill" transform="translate(5647.25 -422.373)" fill="#E0DFDE"/>
<use xlink:href="#path22_fill" transform="translate(5647.25 -422.373)" fill="#E0DFDE"/>
</g>
</g>
</g>
<defs>
<path id="path0_fill" fill-rule="evenodd" d="M 35.9364 2.44411C 44.201 6.33247 49.846 14.4425 49.846 23.8115C 49.846 33.1806 44.201 41.2906 35.9364 45.179L 35.9364 42.5497C 42.8359 38.8835 47.4847 31.8475 47.4847 23.8115C 47.4847 15.7756 42.8359 8.77657 35.9364 5.11041L 35.9364 2.44411ZM 35.9364 40.0315C 38.187 38.6243 40.1425 36.8468 41.6921 34.7355L 35.9364 34.7355L 35.9364 40.0315ZM 35.9364 32.5511L 43.0572 32.5511C 44.2379 30.4032 44.9758 27.9962 45.1972 25.4409L 36.8957 25.4409C 36.785 27.4777 36.4898 29.4774 35.9364 31.4401L 35.9364 32.5511ZM 35.9364 16.5163C 36.5267 18.7011 36.8588 20.9601 36.8957 23.2561L 45.271 23.2561C 45.1972 20.4046 44.4593 17.7753 43.2048 15.3683L 35.9364 15.3683L 35.9364 16.5163ZM 35.9364 13.1834L 41.8766 13.1834C 40.327 10.9615 38.2977 9.07283 35.9364 7.62858L 35.9364 13.1834ZM 30.4389 0.592511C 32.3944 0.999862 34.2023 1.62941 35.9364 2.44411L 35.9364 5.11041C 34.2392 4.18461 32.3944 3.481 30.4389 3.03662L 30.4389 0.592511ZM 35.9364 45.179C 34.2023 45.9937 32.3944 46.6232 30.4389 47.0306L 30.4389 44.6235C 32.3944 44.1791 34.2392 43.4755 35.9364 42.5497L 35.9364 45.179ZM 35.9364 7.62858L 35.9364 13.1834L 34.8664 13.1834C 34.0916 11.2577 33.1323 9.40611 32.0254 7.73967C 31.5458 7.03607 30.9924 6.33247 30.4389 5.70292L 30.4389 5.29557C 32.4313 5.81401 34.2761 6.59169 35.9364 7.62858ZM 35.9364 15.3683L 35.9364 16.5163C 35.8257 16.1459 35.715 15.7386 35.6043 15.3683L 35.9364 15.3683ZM 35.9364 31.4401L 35.9364 32.5511L 35.6043 32.5511C 35.715 32.1808 35.8257 31.8104 35.9364 31.4401ZM 35.9364 34.7355L 35.9364 40.0315C 34.2761 41.0309 32.4313 41.8456 30.4389 42.364L 30.4389 41.4753C 30.8079 41.1049 31.103 40.7351 31.4351 40.3278C 32.8371 38.6238 33.944 36.7357 34.7926 34.7355L 35.9364 34.7355ZM 30.4389 38.0318C 31.2137 36.9949 31.841 35.884 32.3944 34.736L 30.4389 34.736L 30.4389 38.0318ZM 30.4389 32.5511L 30.4389 25.4409L 34.7188 25.4409C 34.5712 27.8851 34.1285 30.2921 33.3168 32.5511L 30.4389 32.5511ZM 30.4389 23.2561L 30.4389 15.3683L 33.3168 15.3683C 34.1654 17.8864 34.645 20.5527 34.7188 23.2561L 30.4389 23.2561ZM 30.4389 13.1834L 32.5051 13.1834C 31.9147 11.8132 31.2506 10.5541 30.4389 9.33205L 30.4389 13.1834ZM 24.9415 3.20202e-06C 26.8231 3.20202e-06 28.6679 0.222191 30.4389 0.592511L 30.4389 3.03662C 28.7048 2.59224 26.86 2.37004 24.9784 2.37004C 23.5763 2.37004 22.1743 2.51817 20.8092 2.74036L 20.8092 0.333288C 22.1743 0.111096 23.5394 3.20202e-06 24.9415 3.20202e-06ZM 30.4389 47.0306C 28.6679 47.4009 26.8231 47.6231 24.9415 47.6231C 23.5394 47.6231 22.1743 47.512 20.8092 47.2898L 20.8092 44.9203C 22.1743 45.1425 23.5763 45.2536 24.9784 45.2536C 26.86 45.2536 28.7048 45.0308 30.4389 44.6235L 30.4389 47.0306ZM 30.4389 5.29557L 30.4389 5.70292C 30.2913 5.51776 30.1438 5.3326 29.9962 5.18447C 30.1438 5.2215 30.2913 5.25853 30.4389 5.29557ZM 30.4389 9.33205C 30.3651 9.22096 30.2913 9.10986 30.2175 8.96173C 29.1107 7.33233 27.7824 5.85105 26.3066 4.629L 26.1959 4.59196L 26.1959 13.1834L 30.4389 13.1834L 30.4389 9.33205ZM 30.4389 15.3683L 30.4389 23.2561L 26.1959 23.2561L 26.1959 15.3683L 30.4389 15.3683ZM 30.4389 25.4409L 30.4389 32.5511L 26.1959 32.5511L 26.1959 25.4409L 30.4389 25.4409ZM 30.4389 34.7355L 30.4389 38.0313C 30.2175 38.3276 29.9962 38.6614 29.7379 38.9571C 28.7417 40.2167 27.5611 41.3647 26.1959 42.4011L 26.1959 34.7355L 30.4389 34.7355ZM 30.4389 41.4758C 30.07 41.8831 29.701 42.2534 29.2952 42.6608C 29.6641 42.5497 30.07 42.4762 30.4389 42.3645L 30.4389 41.4758ZM 20.8092 42.6608L 20.8092 42.4016C 20.9567 42.5127 21.0674 42.6238 21.1781 42.7349C 21.0674 42.7349 20.9567 42.6978 20.8092 42.6608ZM 20.8092 39.2163L 20.8092 34.7355L 24.0191 34.7355L 24.0191 42.3275C 22.8384 41.3647 21.7684 40.3278 20.8092 39.2163ZM 20.8092 32.5511L 20.8092 25.4409L 24.0191 25.4409L 24.0191 32.5511L 20.8092 32.5511ZM 20.8092 23.2561L 20.8092 15.3683L 24.0191 15.3683L 24.0191 23.2561L 20.8092 23.2561ZM 20.8092 13.1834L 20.8092 7.62858C 21.6947 6.51763 22.6539 5.51776 23.687 4.59196C 23.7977 4.59196 23.9084 4.59196 24.0191 4.59196L 24.0191 13.1834L 20.8092 13.1834ZM 20.8092 47.2898C 20.145 47.1787 19.4809 47.0676 18.8537 46.9195L 18.8537 44.4754C 19.4809 44.6235 20.145 44.7716 20.8092 44.9197L 20.8092 47.2898ZM 18.8537 0.740636C 19.4809 0.555476 20.145 0.444384 20.8092 0.333288L 20.8092 2.74036C 20.145 2.85146 19.4809 2.99959 18.8537 3.18475L 18.8537 0.740636ZM 20.8092 7.62858L 20.8092 13.1834L 18.8537 13.1834L 18.8537 10.6652C 19.1857 10.0357 19.5547 9.40611 19.9606 8.8136C 20.2188 8.40625 20.514 7.9989 20.8092 7.62858ZM 20.8092 15.3683L 20.8092 23.2561L 18.8537 23.2561L 18.8537 15.3683L 20.8092 15.3683ZM 20.8092 25.4409L 20.8092 32.5511L 18.8537 32.5511L 18.8537 25.4409L 20.8092 25.4409ZM 20.8092 34.7355L 20.8092 39.2163C 20.7354 39.1052 20.6616 39.0317 20.5878 38.9206C 19.9237 38.1059 19.3702 37.2912 18.8537 36.4024L 18.8537 34.736L 20.8092 34.736L 20.8092 34.7355ZM 20.8092 42.4016L 20.8092 42.6608C 20.145 42.5497 19.4809 42.3645 18.8537 42.1794L 18.8537 40.2172L 18.8906 40.2913C 19.4809 41.0314 20.1081 41.735 20.8092 42.4016ZM 18.8537 6.62872L 18.8537 5.48073C 19.2595 5.36963 19.6285 5.25854 20.0712 5.14744C 19.6285 5.62886 19.2226 6.11027 18.8537 6.62872ZM 18.8537 46.9195C 15.4962 46.1048 12.3969 44.6235 9.74045 42.6978L 9.74045 39.5872C 12.2863 41.8461 15.3855 43.5125 18.8537 44.4754L 18.8537 46.9195ZM 9.74045 4.96228C 12.3969 2.99959 15.4962 1.51831 18.8537 0.740636L 18.8537 3.18475C 15.3855 4.11055 12.2863 5.81402 9.74045 8.07297L 9.74045 4.96228ZM 18.8537 5.48073C 15.2748 6.55465 12.1387 8.51735 9.74045 11.1096L 9.74045 13.1834L 15.3117 13.1834C 16.0496 11.1836 17.0089 9.33205 18.1527 7.59155C 18.374 7.29529 18.5954 6.96201 18.8537 6.62872L 18.8537 5.48073ZM 18.8537 10.6652L 18.8537 13.1834L 17.6361 13.1834C 18.0051 12.2946 18.4109 11.4429 18.8537 10.6652ZM 18.8537 15.3683L 18.8537 23.2561L 15.5331 23.2561C 15.57 20.5527 16.0127 17.8864 16.8244 15.3683L 18.8537 15.3683ZM 18.8537 25.4409L 18.8537 32.5511L 17.0089 32.5511C 16.1972 30.2916 15.7176 27.8851 15.57 25.4409L 18.8537 25.4409ZM 18.8537 34.7355L 18.8537 36.4019C 18.5216 35.8834 18.2265 35.328 17.9313 34.7355L 18.8537 34.7355ZM 18.8537 40.2172C 17.4885 38.5503 16.3817 36.6987 15.57 34.736L 9.74045 34.736L 9.74045 36.514C 12.1387 39.1428 15.2748 41.106 18.8537 42.1799L 18.8537 40.2172ZM 9.74045 32.5511L 9.74045 25.4409L 13.3931 25.4409C 13.5407 27.848 13.9835 30.2551 14.7214 32.5511L 9.74045 32.5511ZM 9.74045 23.2561L 9.74045 15.3683L 14.5738 15.3683C 13.8359 17.9235 13.3931 20.5527 13.3562 23.2561L 9.74045 23.2561ZM 9.74045 42.6978C 3.83715 38.3281 2.00172e-06 31.4777 2.00172e-06 23.8115C 2.00172e-06 16.1454 3.83715 9.29502 9.74045 4.96228L 9.74045 8.07297C 5.27608 11.9984 2.5089 17.5902 2.5089 23.8115C 2.5089 30.0329 5.27608 35.6618 9.74045 39.5872L 9.74045 42.6978ZM 9.74045 11.1096C 9.15012 11.7762 8.59669 12.4427 8.08015 13.1834L 9.74045 13.1834L 9.74045 11.1096ZM 9.74045 15.3683L 6.7519 15.3683C 5.49745 17.7753 4.75954 20.4046 4.68575 23.2561L 9.74045 23.2561L 9.74045 15.3683ZM 9.74045 25.4409L 4.75954 25.4409C 4.98091 27.9962 5.71882 30.4032 6.89949 32.5511L 9.74045 32.5511L 9.74045 25.4409ZM 9.74045 34.7355L 8.26463 34.7355C 8.70737 35.3655 9.22392 35.958 9.74045 36.5135L 9.74045 34.7355Z"/>
<path id="path1_fill" d="M 13.0611 39.2168L 12.028 35.5872C 11.8804 35.1058 11.2901 33.2912 10.2201 30.107L 4.90712 14.2573L 3.75322e-07 -2.76253e-06C 1.88168 0.0370292 3.4682 0.0370324 4.68576 0.0370324C 5.46057 0.0370324 6.8257 0.0370292 8.74427 -2.76253e-06L 9.59287 3.18475C 9.77735 3.85132 10.0356 4.70305 10.4046 5.81401L 17.0089 26.8852C 17.4147 28.2189 17.9682 30.0329 18.5954 32.2543L 20.0712 28.7363C 20.4402 27.8851 21.215 26.1811 22.3588 23.6634L 30.9924 4.77712C 31.2506 4.25868 31.5089 3.66616 31.7672 3.03662C 32.0254 2.40708 32.4313 1.40721 32.9847 -2.76253e-06C 34.9771 0.0370292 36.4898 0.0370324 37.5229 0.0370324C 38.1501 0.0370324 39.5516 0.0370292 41.8028 -2.76253e-06L 39.4415 4.59196L 24.4618 35.6247L 22.8753 39.2168C 20.514 39.1798 18.8906 39.1422 18.1158 39.1422C 17.3779 39.1428 15.7176 39.1798 13.0611 39.2168Z"/>
<path id="path2_fill" d="M -4.25365e-06 39.2168C 0.442743 32.6251 0.812222 25.8483 1.07049 18.9228C 1.36514 12.0349 1.51271 6.7393 1.51271 3.07365L 1.47634 -2.76253e-06L 6.0514 0.0370324C 6.30967 0.0370324 7.71169 0.0370292 10.2575 -2.76253e-06C 9.52009 10.0727 9.03994 23.1079 8.81857 39.2173L 4.79643 39.1428C 4.13283 39.1428 2.54631 39.1798 -4.25365e-06 39.2168Z"/>
<path id="path3_fill" d="M 0.590336 39.0687C 0.443266 36.1802 0.258271 33.7726 1.25107e-06 31.9586C 3.61629 33.662 6.8631 34.5138 9.77735 34.5138C 10.9585 34.5138 12.0285 34.3286 13.0611 33.9588C 14.0942 33.588 14.8321 33.0325 15.3117 32.3659C 15.7919 31.6623 16.0496 30.9217 16.0496 30.0699C 16.0496 29.4399 15.9389 28.8479 15.6807 28.3289C 15.3491 27.6258 14.7583 26.8847 13.9466 26.1075C 12.8766 25.0336 11.0318 23.3301 8.33843 20.8865C 7.04656 19.7385 6.16158 18.8863 5.68143 18.4049C 4.61145 17.3315 3.76337 16.3686 3.17252 15.4794C 2.5827 14.6276 2.13944 13.7389 1.91807 12.8871C 1.6598 12.0354 1.51272 11.1096 1.51272 10.1097C 1.51272 8.33219 1.99237 6.62872 2.95166 5.03635C 3.91095 3.48101 5.34987 2.22191 7.26845 1.33315C 9.18702 0.44438 11.5852 -8.16202e-07 14.4995 -8.16202e-07C 17.1191 -8.16202e-07 20.0707 0.333287 23.3545 0.999862C 23.4288 2.99959 23.6127 5.29557 23.9079 7.85078C 21.0305 6.70279 18.4104 6.1473 15.9758 6.1473C 14.2048 6.1473 12.7285 6.55466 11.5852 7.40639C 10.4415 8.25813 9.88752 9.25799 9.88752 10.3689C 9.88752 10.7022 9.92442 10.9985 9.99873 11.3688C 10.0725 11.7021 10.1832 11.9983 10.3677 12.3316C 10.5153 12.6279 10.8104 13.0352 11.2163 13.5537C 11.6221 14.0721 12.2125 14.6646 12.9873 15.3312C 13.799 16.0348 14.4631 16.5903 15.0165 16.9977L 18.4109 20.1819C 19.259 20.9225 20.0344 21.6637 20.6985 22.3673C 21.3995 23.0704 21.9524 23.737 22.4695 24.4035C 22.9491 25.0701 23.3176 25.7002 23.5763 26.2927C 23.871 26.8847 24.056 27.4777 24.2036 28.1067C 24.3511 28.7358 24.4255 29.4034 24.4255 30.0694C 24.4255 31.6988 24.056 33.2171 23.355 34.6244C 22.6539 36.0686 21.6209 37.2161 20.2557 38.1419C 18.9275 39.0682 17.4891 39.7348 15.8657 40.0681C 14.2791 40.4384 12.5819 40.5865 10.8109 40.5865C 9.66769 40.5865 8.30204 40.4754 6.75242 40.2902C 5.20229 40.0691 3.13665 39.6617 0.590336 39.0687Z"/>
<path id="path4_fill" d="M -1.87661e-06 39.2168C 0.442747 32.6251 0.775327 25.8483 1.06998 18.9228C 1.32825 12.0349 1.47583 6.7393 1.47583 3.07365L 1.43894 -2.76253e-06L 6.0509 0.0370324C 6.30969 0.0370324 7.67431 0.0370292 10.2206 -2.76253e-06C 9.48271 10.0727 9.00307 23.1079 8.81859 39.2173L 4.76006 39.1428C 4.09542 39.1428 2.50839 39.1798 -1.87661e-06 39.2168Z"/>
<path id="path5_fill" d="M 22.2107 -8.16202e-07C 24.941 -8.16202e-07 27.56 0.407351 30.0694 1.18502C 32.5784 1.96269 34.7921 3.25881 36.7107 5.03635C 38.6656 6.81388 40.142 8.85063 41.1382 11.2207C 42.0975 13.5907 42.614 16.3311 42.614 19.4418C 42.614 22.4043 42.1343 25.2188 41.2119 27.9221C 40.2527 30.5884 38.8137 32.9214 36.8588 34.8836C 34.9033 36.8092 32.5051 38.254 29.7005 39.1798C 27.044 40.0691 24.2399 40.55 21.2883 40.587L 21.2883 34.4027C 23.0593 34.3662 24.757 34.0324 26.343 33.4033C 28.0033 32.7733 29.4053 31.7734 30.6234 30.4403C 31.8041 29.1071 32.7265 27.4777 33.3168 25.6261C 33.944 23.7375 34.2392 21.7753 34.2392 19.7385C 34.2392 17.8869 33.944 16.0724 33.4275 14.3319C 32.874 12.5914 32.0254 11.0731 30.9186 9.81398C 29.7748 8.5549 28.4097 7.62909 26.7863 7.03658C 25.1997 6.44407 23.5394 6.14782 21.7684 6.14782C 21.6209 6.14782 21.4369 6.14782 21.2883 6.14782L 21.2883 0.0375445C 21.5835 -1.82024e-06 21.9155 -8.16202e-07 22.2107 -8.16202e-07ZM 21.2883 40.587C 21.1412 40.587 20.9931 40.587 20.8461 40.587C 17.9313 40.587 15.1272 40.1797 12.4338 39.2904C 9.70357 38.4387 7.37914 37.1055 5.46056 35.2539C 3.50561 33.4023 2.10306 31.2915 1.25445 28.9214C 0.405854 26.5138 3.12768e-06 23.9592 3.12768e-06 21.1447C 3.12768e-06 18.1076 0.516536 15.2561 1.54961 12.4422C 2.61959 9.66482 4.16921 7.36884 6.19796 5.55428C 8.26463 3.73971 10.626 2.36953 13.3562 1.4067C 15.8651 0.554964 18.4847 0.11058 21.2883 0.0365164L 21.2883 6.14679C 18.7425 6.22085 16.4923 6.88743 14.5364 8.14652C 12.5071 9.44263 10.9575 11.2942 9.92443 13.5902C 8.89135 15.8862 8.37532 18.3673 8.37532 21.0336C 8.37532 23.5518 8.85496 25.8478 9.85114 27.9221C 10.8473 30.0329 12.3969 31.6253 14.4631 32.7357C 16.5292 33.8467 18.7799 34.4022 21.1781 34.4022L 21.2888 34.4022L 21.2888 40.587L 21.2883 40.587Z"/>
<path id="path6_fill" d="M 5.50473e-06 39.2168C 0.368962 35.7729 0.627224 31.921 0.811703 27.6623L 1.43893 13.5907C 1.6603 8.48032 1.771 3.96242 1.771 -2.76253e-06C 3.91094 0.0370292 5.68193 0.0370324 7.19465 0.0370324C 8.26463 0.0370324 9.88804 0.0370292 11.9906 -2.76253e-06C 14.0567 3.77726 16.8977 8.70251 20.5504 14.7757C 24.203 20.8114 27.1178 25.8483 29.3684 29.8483L 30.3646 3.18475C 30.4015 2.5552 30.4015 1.48128 30.4015 -2.76253e-06C 32.1356 0.0370292 33.4265 0.0370324 34.3125 0.0370324C 34.6445 0.0370324 35.9359 0.0370292 38.1496 -2.76253e-06L 37.4486 10.5541L 36.6 28.5516L 36.2685 39.2168C 34.3863 39.1798 32.7634 39.1422 31.4346 39.1422C 30.3647 39.1422 28.6306 39.1793 26.2328 39.2168C 25.3468 37.5129 24.6458 36.2167 24.1662 35.4025C 23.4288 34.1435 21.8053 31.5512 19.3702 27.5888C 17.7468 24.9966 15.7539 21.6637 13.3188 17.5902C 11.5483 14.6276 10.0356 12.0354 8.78117 9.81346C 8.63359 12.8871 8.41222 18.6271 8.08016 27.0333C 7.96948 30.4773 7.85878 34.5138 7.7855 39.2168C 6.05089 39.1798 4.83332 39.1422 4.05902 39.1422C 3.43077 39.1428 2.10306 39.1798 5.50473e-06 39.2168Z"/>
<path id="path7_fill" d="M 80.7665 1.41266e-06C 85.7105 8.25813 87.0756 12.9242 89.8059 20.3676C 96.1151 20.9231 102.166 20.6638 112.312 23.145C 109.582 25.0706 108.217 26.1446 106.298 28.6257C 102.166 28.0702 95.0451 26.9963 90.9128 26.9963C 93.6431 47.8823 93.9751 70.1761 92.3148 74.8416C 103.015 72.3609 114.526 65.5095 114.526 65.5095C 114.526 65.5095 115.891 66.62 116.998 67.7314C 111.87 72.2118 102.867 75.952 91.0604 79.8409C 90.2487 84.2472 89.2525 86.1733 89.2525 86.1733L 83.2385 91.3943C 83.2385 91.3943 84.8619 84.6175 85.194 81.2476C 72.465 83.7287 57.7805 84.8397 47.0069 84.2472C 31.6215 83.4325 1.4408 78.4702 0.0756633 66.0645C -1.32637 53.6588 17.0846 41.3271 28.0426 38.2905C 28.596 39.6607 28.8912 40.4754 28.8912 40.4754C 28.8912 40.4754 4.94589 53.845 8.85683 63.3246C 12.0299 71.0643 36.3072 78.4702 55.7881 79.0262C 68.9599 79.3965 83.1278 76.9519 85.9688 76.2488C 89.5476 53.955 82.9433 26.4408 82.9433 26.4408C 82.9433 26.4408 67.5947 26.4408 54.6812 29.7367C 56.895 26.4408 58.5184 25.0706 60.9904 22.5895C 66.2296 21.6267 72.2805 21.2934 80.7665 20.6638C 79.9179 14.8498 73.9039 5.77699 73.9039 5.77699L 80.7665 1.41266e-06Z"/>
<path id="path8_fill" d="M 0 15.0596L 0 0.204059L 4.83873 0.204059C 6.44486 0.204059 7.65116 0.537355 8.45761 1.20395C 9.27084 1.87054 9.67746 2.85683 9.67746 4.1628C 9.67746 4.8566 9.48093 5.47218 9.08787 6.00954C 8.6948 6.54009 8.15943 6.95161 7.48173 7.24409C 8.28141 7.46856 8.91167 7.89708 9.3725 8.52967C 9.84011 9.15545 10.0739 9.90366 10.0739 10.7743C 10.0739 12.1075 9.64357 13.155 8.7829 13.9168C 7.92223 14.6786 6.70578 15.0596 5.13353 15.0596L 0 15.0596ZM 1.95176 8.11135L 1.95176 13.4577L 5.17419 13.4577C 6.0823 13.4577 6.79726 13.223 7.31909 12.7537C 7.84769 12.2775 8.11199 11.6246 8.11199 10.7947C 8.11199 9.0058 7.14289 8.11135 5.20468 8.11135L 1.95176 8.11135ZM 1.95176 6.54009L 4.89972 6.54009C 5.75362 6.54009 6.4347 6.32583 6.94297 5.8973C 7.45801 5.46878 7.71554 4.88721 7.71554 4.1526C 7.71554 3.33636 7.47835 2.74459 7.00396 2.37729C 6.52957 2.00318 5.80783 1.81612 4.83873 1.81612L 1.95176 1.81612L 1.95176 6.54009Z"/>
<path id="path9_fill" d="M 21.144 11.1824L 14.9431 11.1824L 13.5505 15.0596L 11.5377 15.0596L 17.1897 0.204059L 18.8975 0.204059L 24.5596 15.0596L 22.557 15.0596L 21.144 11.1824ZM 15.5327 9.57037L 20.5646 9.57037L 18.0436 2.62216L 15.5327 9.57037Z"/>
<path id="path10_fill" d="M 28.5038 9.24387L 28.5038 15.0596L 26.552 15.0596L 26.552 0.204059L 32.0108 0.204059C 33.6305 0.204059 34.8978 0.618979 35.8127 1.44882C 36.7344 2.27866 37.1952 3.37718 37.1952 4.74437C 37.1952 6.18639 36.7445 7.29851 35.8432 8.08074C 34.9486 8.85616 33.6644 9.24387 31.9905 9.24387L 28.5038 9.24387ZM 28.5038 7.64201L 32.0108 7.64201C 33.0545 7.64201 33.8542 7.39714 34.4099 6.9074C 34.9656 6.41085 35.2434 5.69665 35.2434 4.76478C 35.2434 3.88052 34.9656 3.17312 34.4099 2.64256C 33.8542 2.11201 33.0918 1.83653 32.1227 1.81612L 28.5038 1.81612L 28.5038 7.64201Z"/>
<path id="path11_fill" d="M 49.9121 1.81612L 45.1547 1.81612L 45.1547 15.0596L 43.2131 15.0596L 43.2131 1.81612L 38.4659 1.81612L 38.4659 0.204059L 49.9121 0.204059L 49.9121 1.81612Z"/>
<path id="path12_fill" d="M 54.2019 15.0596L 52.2502 15.0596L 52.2502 0.204059L 54.2019 0.204059L 54.2019 15.0596Z"/>
<path id="path13_fill" d="M 62.1411 8.43784C 60.4672 7.9549 59.2473 7.36313 58.4815 6.66253C 57.7225 5.95512 57.343 5.08447 57.343 4.05057C 57.343 2.88063 57.8072 1.91475 58.7357 1.15293C 59.6709 0.384311 60.884 0 62.3749 0C 63.3914 0 64.2962 0.197257 65.0891 0.591771C 65.8887 0.986285 66.5054 1.53044 66.9392 2.22424C 67.3797 2.91804 67.5999 3.67646 67.5999 4.4995L 65.638 4.4995C 65.638 3.60164 65.3534 2.89764 64.7841 2.38749C 64.2148 1.87054 63.4118 1.61207 62.3749 1.61207C 61.4126 1.61207 60.6603 1.82633 60.1182 2.25485C 59.5828 2.67657 59.3151 3.26494 59.3151 4.01996C 59.3151 4.62534 59.5692 5.13889 60.0775 5.56061C 60.5926 5.97553 61.4634 6.35644 62.69 6.70334C 63.9234 7.05024 64.8857 7.43455 65.577 7.85627C 66.275 8.27119 66.7901 8.75753 67.1221 9.31529C 67.461 9.87305 67.6304 10.5294 67.6304 11.2845C 67.6304 12.4884 67.1628 13.4543 66.2276 14.1821C 65.2924 14.9031 64.042 15.2636 62.4765 15.2636C 61.46 15.2636 60.5112 15.0698 59.6302 14.682C 58.7492 14.2875 58.0681 13.7502 57.587 13.07C 57.1126 12.3898 56.8754 11.6178 56.8754 10.7539L 58.8373 10.7539C 58.8373 11.6518 59.166 12.3626 59.8234 12.8863C 60.4875 13.4033 61.3719 13.6617 62.4765 13.6617C 63.5066 13.6617 64.2962 13.4509 64.8451 13.0292C 65.394 12.6074 65.6685 12.0327 65.6685 11.3049C 65.6685 10.5771 65.4143 10.0159 64.9061 9.62138C 64.3978 9.22007 63.4761 8.82555 62.1411 8.43784Z"/>
<path id="path14_fill" d="M 80.3677 1.81612L 75.6102 1.81612L 75.6102 15.0596L 73.6687 15.0596L 73.6687 1.81612L 68.9214 1.81612L 68.9214 0.204059L 80.3677 0.204059L 80.3677 1.81612Z"/>
<path id="path15_fill" d="M 89.8418 0.204059L 94.6805 12.3252L 99.5193 0.204059L 102.05 0.204059L 102.05 15.0596L 100.099 15.0596L 100.099 9.27448L 100.282 3.03028L 95.4226 15.0596L 93.9283 15.0596L 89.0794 3.06088L 89.2725 9.27448L 89.2725 15.0596L 87.3208 15.0596L 87.3208 0.204059L 89.8418 0.204059Z"/>
<path id="path16_fill" d="M 107.591 15.0596L 105.639 15.0596L 105.639 0.204059L 107.591 0.204059L 107.591 15.0596Z"/>
<path id="path17_fill" d="M 115.53 8.43784C 113.856 7.9549 112.636 7.36313 111.87 6.66253C 111.111 5.95512 110.732 5.08447 110.732 4.05057C 110.732 2.88063 111.196 1.91475 112.124 1.15293C 113.06 0.384311 114.273 0 115.764 0C 116.78 0 117.685 0.197257 118.478 0.591771C 119.277 0.986285 119.894 1.53044 120.328 2.22424C 120.768 2.91804 120.989 3.67646 120.989 4.4995L 119.027 4.4995C 119.027 3.60164 118.742 2.89764 118.173 2.38749C 117.604 1.87054 116.8 1.61207 115.764 1.61207C 114.801 1.61207 114.049 1.82633 113.507 2.25485C 112.971 2.67657 112.704 3.26494 112.704 4.01996C 112.704 4.62534 112.958 5.13889 113.466 5.56061C 113.981 5.97553 114.852 6.35644 116.079 6.70334C 117.312 7.05024 118.274 7.43455 118.966 7.85627C 119.664 8.27119 120.179 8.75753 120.511 9.31529C 120.85 9.87305 121.019 10.5294 121.019 11.2845C 121.019 12.4884 120.551 13.4543 119.616 14.1821C 118.681 14.9031 117.431 15.2636 115.865 15.2636C 114.849 15.2636 113.9 15.0698 113.019 14.682C 112.138 14.2875 111.457 13.7502 110.976 13.07C 110.501 12.3898 110.264 11.6178 110.264 10.7539L 112.226 10.7539C 112.226 11.6518 112.555 12.3626 113.212 12.8863C 113.876 13.4033 114.761 13.6617 115.865 13.6617C 116.895 13.6617 117.685 13.4509 118.234 13.0292C 118.783 12.6074 119.057 12.0327 119.057 11.3049C 119.057 10.5771 118.803 10.0159 118.295 9.62138C 117.786 9.22007 116.865 8.82555 115.53 8.43784Z"/>
<path id="path18_fill" d="M 127.891 8.43784C 126.217 7.9549 124.997 7.36313 124.231 6.66253C 123.472 5.95512 123.093 5.08447 123.093 4.05057C 123.093 2.88063 123.557 1.91475 124.485 1.15293C 125.421 0.384311 126.634 0 128.125 0C 129.141 0 130.046 0.197257 130.839 0.591771C 131.639 0.986285 132.255 1.53044 132.689 2.22424C 133.129 2.91804 133.35 3.67646 133.35 4.4995L 131.388 4.4995C 131.388 3.60164 131.103 2.89764 130.534 2.38749C 129.965 1.87054 129.162 1.61207 128.125 1.61207C 127.162 1.61207 126.41 1.82633 125.868 2.25485C 125.333 2.67657 125.065 3.26494 125.065 4.01996C 125.065 4.62534 125.319 5.13889 125.827 5.56061C 126.342 5.97553 127.213 6.35644 128.44 6.70334C 129.673 7.05024 130.636 7.43455 131.327 7.85627C 132.025 8.27119 132.54 8.75753 132.872 9.31529C 133.211 9.87305 133.38 10.5294 133.38 11.2845C 133.38 12.4884 132.913 13.4543 131.977 14.1821C 131.042 14.9031 129.792 15.2636 128.226 15.2636C 127.21 15.2636 126.261 15.0698 125.38 14.682C 124.499 14.2875 123.818 13.7502 123.337 13.07C 122.862 12.3898 122.625 11.6178 122.625 10.7539L 124.587 10.7539C 124.587 11.6518 124.916 12.3626 125.573 12.8863C 126.237 13.4033 127.122 13.6617 128.226 13.6617C 129.256 13.6617 130.046 13.4509 130.595 13.0292C 131.144 12.6074 131.418 12.0327 131.418 11.3049C 131.418 10.5771 131.164 10.0159 130.656 9.62138C 130.148 9.22007 129.226 8.82555 127.891 8.43784Z"/>
<path id="path19_fill" d="M 137.985 15.0596L 136.033 15.0596L 136.033 0.204059L 137.985 0.204059L 137.985 15.0596Z"/>
<path id="path20_fill" d="M 152.949 8.11135C 152.949 9.56697 152.705 10.8389 152.217 11.9272C 151.729 13.0088 151.038 13.8352 150.143 14.4066C 149.248 14.9779 148.205 15.2636 147.012 15.2636C 145.846 15.2636 144.813 14.9779 143.912 14.4066C 143.01 13.8284 142.309 13.0088 141.807 11.9477C 141.313 10.8797 141.058 9.64519 141.045 8.24398L 141.045 7.17267C 141.045 5.74426 141.292 4.4825 141.787 3.38738C 142.282 2.29226 142.98 1.45562 143.881 0.877454C 144.789 0.292485 145.826 0 146.992 0C 148.178 0 149.221 0.289084 150.123 0.867251C 151.031 1.43862 151.729 2.27186 152.217 3.36697C 152.705 4.45529 152.949 5.72385 152.949 7.17267L 152.949 8.11135ZM 151.007 7.15227C 151.007 5.39056 150.655 4.04037 149.95 3.1017C 149.245 2.15622 148.259 1.68349 146.992 1.68349C 145.758 1.68349 144.786 2.15622 144.074 3.1017C 143.369 4.04037 143.007 5.34635 142.987 7.01963L 142.987 8.11135C 142.987 9.81864 143.342 11.162 144.054 12.1415C 144.772 13.1142 145.758 13.6005 147.012 13.6005C 148.273 13.6005 149.248 13.1414 149.94 12.2231C 150.631 11.2981 150.987 9.97508 151.007 8.25419L 151.007 7.15227Z"/>
<path id="path21_fill" d="M 167.251 15.0596L 165.289 15.0596L 157.838 3.61184L 157.838 15.0596L 155.876 15.0596L 155.876 0.204059L 157.838 0.204059L 165.31 11.7028L 165.31 0.204059L 167.251 0.204059L 167.251 15.0596Z"/>
<path id="path22_fill" d="M 175.079 8.43784C 173.405 7.9549 172.185 7.36313 171.419 6.66253C 170.66 5.95512 170.281 5.08447 170.281 4.05057C 170.281 2.88063 170.745 1.91475 171.673 1.15293C 172.608 0.384311 173.822 0 175.312 0C 176.329 0 177.234 0.197257 178.027 0.591771C 178.826 0.986285 179.443 1.53044 179.877 2.22424C 180.317 2.91804 180.537 3.67646 180.537 4.4995L 178.576 4.4995C 178.576 3.60164 178.291 2.89764 177.722 2.38749C 177.152 1.87054 176.349 1.61207 175.312 1.61207C 174.35 1.61207 173.598 1.82633 173.056 2.25485C 172.52 2.67657 172.253 3.26494 172.253 4.01996C 172.253 4.62534 172.507 5.13889 173.015 5.56061C 173.53 5.97553 174.401 6.35644 175.628 6.70334C 176.861 7.05024 177.823 7.43455 178.515 7.85627C 179.213 8.27119 179.728 8.75753 180.06 9.31529C 180.399 9.87305 180.568 10.5294 180.568 11.2845C 180.568 12.4884 180.1 13.4543 179.165 14.1821C 178.23 14.9031 176.98 15.2636 175.414 15.2636C 174.398 15.2636 173.449 15.0698 172.568 14.682C 171.687 14.2875 171.006 13.7502 170.525 13.07C 170.05 12.3898 169.813 11.6178 169.813 10.7539L 171.775 10.7539C 171.775 11.6518 172.104 12.3626 172.761 12.8863C 173.425 13.4033 174.309 13.6617 175.414 13.6617C 176.444 13.6617 177.234 13.4509 177.783 13.0292C 178.332 12.6074 178.606 12.0327 178.606 11.3049C 178.606 10.5771 178.352 10.0159 177.844 9.62138C 177.335 9.22007 176.414 8.82555 175.079 8.43784Z"/>
</defs>
</svg>
